<svg xmlns="http://www.w3.org/2000/svg" width="253.782" height="185.57" viewBox="0 0 253.782 185.57">
  <g id="그룹_7528" data-name="그룹 7528" transform="translate(10423.3 -6947.421)">
    <path id="패스_190" data-name="패스 190" d="M28.263-144.276h3.125q0,18.75,4.188,18.75,2.562,0,15.563,2.063v2.063a1.823,1.823,0,0,1-2.062,2.063q-3.313-1.5-14.562-3.125,0,1.063-1,1.063,1,1.5,2.063,11.438l-2.062,1H32.45q-2.062,0-2.062-3.062,0-10.437-3.125-29.125A7.7,7.7,0,0,0,28.263-144.276Zm-42.562,6.25H6.45l5.25,1.063v3.125q0,5.5-12.5,25.938a1.823,1.823,0,0,1-2.062-2.062v-2.062Q7.513-129.464,7.513-133.839L-2.862-134.9h-9.375a1.823,1.823,0,0,1-2.062-2.062Zm49.875,39.5V-95.4q-26,1.5-26,6.188v3.125q.687,3.125,8.313,3.125H32.45V-80.9l-1.062,2.125-7.25-1.062H11.7q-2.125.313-2.125,2.063,0,8.313,4.188,8.313,6.75,2.063,9.313,2.063,1.313,0,10.438-1v4.125H26.2q-19.75,0-19.75-3.125,0-4.75-1-23.875Q5.45-98.526,35.575-98.526Zm73.25-41.687h2.063q2.063.313,2.063,2.063v1.063l-2.062,3.063a164.848,164.848,0,0,0,2.48,24.953c.443,2.772,1.007,6.009,1.645,9.422l-3.125,2.063Q109.825-106.9,106.7-130.9Zm-39.562,6.188h3.125q14.563,3.75,14.563,12.5v10.438q0,4.875-14.562,6.25-8.938,0-12.5-15.625Q59.888-134.026,69.263-134.026Zm-6.25,10.438q1.187,15.625,12.5,15.625a14.167,14.167,0,0,0,8.313-5.25l-1.062-2.062V-119.4a.939.939,0,0,1,1.063-1.062q-6-10.437-13.562-10.437h-1Q67.95-130.9,63.013-123.589Zm80.834,36.77h4.188A208.305,208.305,0,0,0,150.1-56.631l-2.062,1.063h-2.062v-1.062Q145.972-62.569,143.847-86.819Zm-30.187,5.25q11.5,1.375,11.5,10.375v9.375q-2.75,7.313-15.625,7.313-7.125-2.937-9.375-7.312v-6.25Q100.159-77.569,113.659-81.569ZM103.284-63.881l6.25,5.188h5.188q7.313,0,7.313-9.375v-2.062q0-5.625-4.187-7.312h-4.187q-3.937,4.188-8.312,4.188Q103.284-66.506,103.284-63.881Zm14.563,22.875h2.063v1.063q-.312,5.5-6.25,11.438,8.688,14.562,15.625,14.563v3.125a1.823,1.823,0,0,1-2.062,2.063q-8.25-6.625-15.625-13.5-1.437,0-4.125,8.313l-2.125,1.063h-2.062Q115.409-41.006,117.847-41.006Zm40.563,0v3.125q-5.5,5.813-7.25,10.375,7.75,12.5,13.5,12.5v5.188h-1q-2.062,0-15.625-13.5-4.5,12.5-6.25,12.5h-2.062v-1.062q0-5.25,15.563-29.125Zm57.563-24.875H218.1a52.225,52.225,0,0,1-1.062,9.375l5.188,32.188H218.1v-5.187l-3.125-16.625H200.409a1.823,1.823,0,0,1-2.062-2.062q.312-2.062,2.063-2.062h13.5v-13.5Q214.222-65.881,215.972-65.881Zm-42.562,1.063a8,8,0,0,1,4.125,1.063,81.482,81.482,0,0,1,11.438-1.062h9.375v1.063q-2.062,19.688-6.25,33.25h-2.062a1.851,1.851,0,0,1-2.062-2.125q4.125-6.562,6.188-28L192.1-61.694q-12.438,1.063-18.687,1.063Zm56.125,1.063h4.125v4.125q0,10.625,5.188,34.313l-2.062,1h-2.062l-5.187-35.312Z" transform="translate(-10409 7113)" fill="#202020"/>
    <path id="패스_191" data-name="패스 191" d="M7.3,48.421q.7.127.7.722v.34q0,7.43,1.061,7.43l3.184.34,2.463-.34.361.7a.629.629,0,0,1-.722.7H8.7v.361q0,1.529.7,7.77H8q0-3.184-1.422-17.3Q6.707,48.421,7.3,48.421ZM-9.661,49.482H.232V50.9L-2.953,64.683h-.361l-.7-.361L-.83,50.9l-1.762-.361H-9.661Zm75.522-.722h.361q.7,0,.7,1.061a2.617,2.617,0,0,1-.34,1.061l.34,2.123v2.123h4.607v.34q0,2.123-2.484,4.968v.34q3.609,4.607,5.307,4.607v1.061H72.93L67.983,62.2a5.57,5.57,0,0,0-2.463,3.545H64.8a.629.629,0,0,1-.7-.722l5.668-7.77V56.191H60.914V55.129a2.834,2.834,0,0,0,1.422-.361l2.123.361h1.4l-.34-1.783v-2.1Zm11.676,1.762h1.422v.361a30.56,30.56,0,0,1-.361,4.246q1.422,8.025,1.422,9.192l-.722.361h-.34l-.722-.361L78.6,62.56a70.5,70.5,0,0,1-1.061-9.553Z" transform="translate(-10398 6899)" fill="#202020"/>
    <path id="패스_192" data-name="패스 192" d="M-10171.357,7087.384s1.825,5.811-.787,21.009-26.027-1.281-37.9,13.206" transform="translate(-1 0.1)" fill="none" stroke="#202020" stroke-width="4.2"/>
    <path id="사각형_276" data-name="사각형 276" d="M5,0h6a5,5,0,0,1,5,5V7a0,0,0,0,1,0,0H0A0,0,0,0,1,0,7V5A5,5,0,0,1,5,0Z" transform="matrix(0.799, 0.602, -0.602, 0.799, -10215.98, 7114.988)" fill="#202020"/>
    <rect id="사각형_277" data-name="사각형 277" width="10" height="4" rx="2" transform="matrix(0.602, -0.799, 0.799, 0.602, -10221.606, 7126.685)" fill="#202020"/>
    <rect id="사각형_278" data-name="사각형 278" width="10" height="4" rx="2" transform="matrix(0.602, -0.799, 0.799, 0.602, -10216.305, 7130.584)" fill="#202020"/>
  </g>
</svg>
